<svg xmlns="http://www.w3.org/2000/svg" viewBox="0 0 669.05 174"><defs><style>.cls-1{fill:#fff;}.cls-2{fill:#1a6cc4;}.cls-3{fill:none;}</style></defs><title>logo</title><g id="Layer_3" data-name="Layer 3"><path class="cls-1" d="M556.11,217s-46.86,12.64-35.7,49.83c0,0,16.36,6.69,35.7-11.9C556.11,254.93,553.13,235.59,556.11,217Z" transform="translate(-442.92 -212)"/></g><g id="Layer_4" data-name="Layer 4"><path class="cls-1" d="M622,292s-24-5-46-16c0,0-10-40-42-39s-36,2-50,9-70,60-22,114V343s5,23,33,36l-6-14s9,17,36,21l-10-10s36,20,62-4c0,0-35.7,7.91-31-25,2-14,35-10,56-14S633,295,622,292Z" transform="translate(-442.92 -212)"/></g><g id="Layer_5" data-name="Layer 5"><path class="cls-2" d="M543,274h13s2,5,9,8H554S549,274,543,274Z" transform="translate(-442.92 -212)"/></g><g id="Layer_2" data-name="Layer 2"><path class="cls-1" d="M534,212s-63,17-48,67c0,0,22,9,48-16C534,263,530,237,534,212Z" transform="translate(-442.92 -212)"/></g><g id="Layer_6" data-name="Layer 6"><path class="cls-3" d="M542,252s6,27-31,36-16.5,32.5-12,36a80.71,80.71,0,0,1,6-13s-1,26,5,28a16.77,16.77,0,0,1,9-12s-4,17,3,23c0,0,7-12,9-10,0,0-4,15,11,27" transform="translate(-442.92 -212)"/></g><g id="Layer_8" data-name="Layer 8"><path class="cls-1" d="M664.83,366.38a5.79,5.79,0,0,1-1.58-4.28V309.45a5.38,5.38,0,0,1,1.49-4.05,5.62,5.62,0,0,1,4.09-1.44H691q10.17,0,15.84,5.09t5.67,14.26q0,9.18-5.67,14.31T691,342.75H674.86V362.1A5.42,5.42,0,0,1,669,368,5.64,5.64,0,0,1,664.83,366.38Zm24.7-32.54q12,0,12-10.44t-12-10.44H674.86v20.88Z" transform="translate(-442.92 -212)"/><path class="cls-1" d="M771.07,363.27a4.21,4.21,0,0,1-1.66,3.42,6,6,0,0,1-3.92,1.35,5.87,5.87,0,0,1-2.74-.67,5.93,5.93,0,0,1-2.21-2l-12-18.18a11.65,11.65,0,0,0-3.82-4.05,10.47,10.47,0,0,0-5.27-1.17h-8.82V362.1a5.89,5.89,0,0,1-1.53,4.28A5.5,5.5,0,0,1,725,368a5.64,5.64,0,0,1-4.18-1.57,5.79,5.79,0,0,1-1.58-4.28V309.45a5.38,5.38,0,0,1,1.49-4.05,5.62,5.62,0,0,1,4.09-1.44h22.5q10.8,0,16.43,4.82t5.62,13.9q0,7.38-4.18,12.11t-11.84,6.07a11.35,11.35,0,0,1,4.59,2.25,19.79,19.79,0,0,1,3.87,4.5L770,360.12A5.69,5.69,0,0,1,771.07,363.27Zm-15.75-32.71q3.06-2.47,3.06-7.61t-3.06-7.6q-3.06-2.39-9.63-2.39H730.57V333h15.12Q752.26,333,755.32,330.56Z" transform="translate(-442.92 -212)"/><path class="cls-1" d="M779.94,366.33a5.81,5.81,0,0,1-1.58-4.23V309.27a5.43,5.43,0,0,1,5.76-5.76,5.79,5.79,0,0,1,4.28,1.58,5.64,5.64,0,0,1,1.57,4.18V362.1a5.81,5.81,0,0,1-1.57,4.23,5.7,5.7,0,0,1-4.28,1.62A5.56,5.56,0,0,1,779.94,366.33Z" transform="translate(-442.92 -212)"/><path class="cls-1" d="M860.62,305.09a5.74,5.74,0,0,1,1.53,4.18v53.28a5.35,5.35,0,0,1-1.44,4,5.11,5.11,0,0,1-3.78,1.44,4.81,4.81,0,0,1-3.69-1.44,5.56,5.56,0,0,1-1.35-4V325.47l-15.3,29a9,9,0,0,1-2.34,2.93,4.81,4.81,0,0,1-3,.94,5,5,0,0,1-3-.9,8.28,8.28,0,0,1-2.34-3l-15.39-28.53v36.63a5.5,5.5,0,0,1-1.39,3.92,4.9,4.9,0,0,1-3.74,1.48,4.81,4.81,0,0,1-3.69-1.44,5.56,5.56,0,0,1-1.35-4V309.27a5.84,5.84,0,0,1,1.49-4.18,5.23,5.23,0,0,1,4-1.58q3.51,0,5.49,3.87l20,38.07,19.89-38.07q2-3.87,5.31-3.87A5.39,5.39,0,0,1,860.62,305.09Z" transform="translate(-442.92 -212)"/><path class="cls-1" d="M874,366a5.38,5.38,0,0,1-1.49-4.05V309.45A5.38,5.38,0,0,1,874,305.4a5.62,5.62,0,0,1,4.09-1.44h32.49a6.26,6.26,0,0,1,4,1.17,4,4,0,0,1,1.44,3.33,4.29,4.29,0,0,1-1.44,3.47,6.1,6.1,0,0,1-4,1.21H883.84V330.6h24.93a6.26,6.26,0,0,1,4.05,1.17,4.15,4.15,0,0,1,1.44,3.42,4,4,0,0,1-1.44,3.33,6.26,6.26,0,0,1-4.05,1.17H883.84v18.54h26.73a6.1,6.1,0,0,1,4,1.22,4.27,4.27,0,0,1,1.44,3.46,4,4,0,0,1-1.44,3.33,6.26,6.26,0,0,1-4,1.17H878.08A5.62,5.62,0,0,1,874,366Z" transform="translate(-442.92 -212)"/><path class="cls-1" d="M985.08,319.07a2.23,2.23,0,0,1,1.47.54,1.7,1.7,0,0,1,.64,1.36,3.85,3.85,0,0,1-.13.68l-15.78,44.61a2.2,2.2,0,0,1-.92,1.15,2.48,2.48,0,0,1-1.39.41,2.22,2.22,0,0,1-1.29-.41,2.24,2.24,0,0,1-.89-1.15L952.58,326l-14.35,40.26a2.23,2.23,0,0,1-.88,1.15,2.34,2.34,0,0,1-1.36.41,2.36,2.36,0,0,1-2.18-1.56L918,321.65a3.83,3.83,0,0,1-.14-.75,1.66,1.66,0,0,1,.61-1.32,2.18,2.18,0,0,1,1.43-.51,1.81,1.81,0,0,1,1.09.34,2.19,2.19,0,0,1,.75.95l14.35,41.21,14.28-40.67a2.35,2.35,0,0,1,.84-1.22,2.18,2.18,0,0,1,1.26-.41,2.3,2.3,0,0,1,1.36.44,2.49,2.49,0,0,1,.89,1.26L969,361.57l14.35-41.21A1.75,1.75,0,0,1,985.08,319.07Z" transform="translate(-442.92 -212)"/><path class="cls-1" d="M1003.1,365a19.29,19.29,0,0,1-7.41-8.5,34.32,34.32,0,0,1,0-26.11,19.29,19.29,0,0,1,7.38-8.5,23.45,23.45,0,0,1,22.81,0,19.25,19.25,0,0,1,7.42,8.46,34.42,34.42,0,0,1,0,26.15,19.24,19.24,0,0,1-7.42,8.5,23.39,23.39,0,0,1-22.78,0Zm23.94-6.22q4.49-5.44,4.49-15.37t-4.45-15.33q-4.46-5.41-12.62-5.41c-5.39,0-9.58,1.81-12.54,5.44s-4.46,8.73-4.46,15.3,1.49,11.68,4.46,15.33,7.15,5.48,12.54,5.48S1024.05,362.4,1027,358.78Z" transform="translate(-442.92 -212)"/><path class="cls-1" d="M1047.07,366.87a1.68,1.68,0,0,1-.65-1.36v-44.2a2.15,2.15,0,0,1,.58-1.56,2,2,0,0,1,1.53-.62,2.05,2.05,0,0,1,1.56.58,2.27,2.27,0,0,1,.55,1.6v42.43h23.25a2,2,0,0,1,1.4.48,2.07,2.07,0,0,1,0,2.72,2,2,0,0,1-1.4.47H1048.6A2.31,2.31,0,0,1,1047.07,366.87Z" transform="translate(-442.92 -212)"/><path class="cls-1" d="M1083.24,367.14a2.17,2.17,0,0,1-.58-1.56v-44a2,2,0,0,1,.65-1.49,2.23,2.23,0,0,1,1.6-.62h25.16a1.94,1.94,0,0,1,1.39.48,1.77,1.77,0,0,1,.51,1.36,1.68,1.68,0,0,1-.51,1.33,2.07,2.07,0,0,1-1.39.44h-23.19v18.15h21.83a2,2,0,0,1,1.39.48,2.07,2.07,0,0,1,0,2.72,2,2,0,0,1-1.39.48h-21.83v20.67a2.22,2.22,0,0,1-.55,1.6,2,2,0,0,1-1.56.57A2,2,0,0,1,1083.24,367.14Z" transform="translate(-442.92 -212)"/></g></svg>